<?xml version="1.0" standalone="no"?>
<!DOCTYPE svg PUBLIC "-//W3C//DTD SVG 20010904//EN"
 "http://www.w3.org/TR/2001/REC-SVG-20010904/DTD/svg10.dtd">
<svg version="1.0" xmlns="http://www.w3.org/2000/svg"
 width="280.000000pt" height="280.000000pt" viewBox="0 0 280.000000 280.000000"
 preserveAspectRatio="xMidYMid meet">
<metadata>
Created by potrace 1.14, written by Peter Selinger 2001-2017
</metadata>
<g transform="translate(0.000000,280.000000) scale(0.100000,-0.100000)"
fill="#000000" stroke="none">
<path d="M0 1400 l0 -1400 1400 0 1400 0 0 1400 0 1400 -1400 0 -1400 0 0
-1400z m1439 1081 c26 -52 33 -76 29 -102 -6 -34 -6 -34 32 -34 24 0 46 -8 59
-19 26 -24 27 -36 2 -36 -28 0 -69 -37 -76 -69 -8 -39 8 -120 67 -336 28 -99
52 -189 55 -200 3 -11 20 -69 38 -130 40 -136 50 -201 36 -250 -9 -34 -8 -40
14 -57 55 -43 97 -152 141 -368 31 -150 29 -277 -5 -336 l-20 -34 30 -16 c17
-8 49 -19 72 -24 l42 -8 -35 -1 c-19 0 -54 8 -77 18 -38 18 -45 18 -83 5 -85
-30 -160 16 -160 97 0 73 79 116 135 73 24 -18 11 -45 -26 -54 -25 -6 -37 -36
-21 -52 33 -33 82 44 82 131 0 66 -11 142 -20 136 -4 -3 -8 5 -8 18 0 22 -44
200 -77 310 l-17 58 -41 -6 c-56 -10 -90 -28 -137 -75 -52 -52 -65 -100 -42
-154 20 -45 16 -83 -9 -99 -41 -26 -80 33 -54 83 33 64 7 139 -69 199 -39 31
-104 55 -134 49 -8 -2 -19 -16 -24 -33 -35 -126 -78 -303 -78 -324 -1 -26 -1
-26 -17 -6 -14 18 -15 18 -9 2 3 -10 8 -49 10 -85 3 -53 2 -59 -4 -27 -6 30
-8 20 -6 -45 3 -106 27 -151 72 -133 23 9 13 46 -15 53 -13 3 -29 13 -35 23
-21 35 56 63 103 37 26 -14 44 -64 37 -103 -13 -69 -88 -102 -163 -72 -38 15
-43 15 -66 0 -13 -8 -46 -17 -73 -19 -27 -2 -38 -2 -24 1 14 2 32 7 40 10 8 3
24 8 34 10 40 7 46 22 24 59 -45 77 -34 244 33 489 32 115 60 174 102 214 21
19 24 28 16 48 -21 55 -18 69 105 506 83 295 99 372 85 420 -10 38 -41 67 -71
67 -51 0 12 51 65 53 31 1 32 2 28 36 -3 25 6 53 30 103 19 37 36 67 39 67 3
0 20 -30 39 -68z m-257 -248 c82 -74 67 -235 -60 -659 -46 -151 -59 -178 -107
-229 -32 -34 -34 -41 -26 -74 12 -54 -1 -121 -46 -251 -86 -243 -150 -390
-195 -446 -53 -66 -52 -61 -19 -78 17 -9 47 -21 68 -26 l38 -10 -44 6 c-24 2
-57 14 -73 25 -27 20 -30 20 -53 5 -68 -45 -187 -21 -220 45 -41 78 12 169 98
169 23 0 53 -7 65 -16 12 -8 28 -12 35 -8 6 4 -3 -8 -20 -27 -21 -21 -42 -33
-60 -34 -33 0 -39 -31 -11 -49 26 -16 47 1 95 80 44 69 52 91 31 78 -7 -4 -8
-3 -4 5 4 6 12 8 18 5 8 -5 9 -1 5 10 -4 10 1 24 12 35 11 11 16 23 13 27 -4
5 1 3 10 -4 14 -11 16 -10 11 7 -3 11 12 55 35 104 85 177 116 267 118 344 1
69 3 74 42 118 22 25 48 67 57 93 35 100 74 231 91 310 10 45 22 82 27 82 4 0
6 17 3 38 -4 26 -3 30 2 12 8 -23 9 -21 19 20 33 135 28 185 -20 199 l-32 9
31 1 c38 1 50 -23 58 -114 3 -45 2 -53 -4 -30 -8 25 -9 21 -5 -20 3 -37 1 -45
-6 -30 -7 15 -8 12 -4 -15 4 -25 2 -31 -5 -20 -9 13 -10 13 -10 0 0 -8 4 -21
9 -28 15 -25 41 97 34 163 -7 80 -25 107 -66 103 -28 -3 -32 -7 -32 -33 0 -22
6 -33 23 -40 13 -6 22 -18 21 -30 0 -11 -3 -14 -6 -7 -2 6 -15 12 -28 12 -13
0 -37 12 -54 26 -34 29 -41 71 -19 120 24 52 115 68 160 27z m102 18 c3 -4 -5
-6 -18 -4 -13 3 -34 0 -47 -7 -23 -11 -23 -10 -5 4 21 17 62 21 70 7z m302 -6
c10 -8 14 -15 7 -15 -6 0 -15 5 -19 11 -3 6 -19 9 -35 7 -16 -3 -29 -1 -29 4
0 14 55 9 76 -7z m149 0 c85 -41 67 -163 -27 -184 -43 -10 -54 7 -15 24 16 7
22 18 22 40 0 26 -4 30 -31 33 -40 4 -57 -17 -65 -82 l-6 -51 -2 53 c-1 44 3
57 24 77 26 27 53 31 88 14 21 -10 21 -10 3 5 -30 24 -64 19 -98 -15 -30 -30
-31 -32 -24 -102 3 -40 9 -83 13 -96 6 -23 7 -24 14 -5 4 10 7 33 7 49 -1 30
-1 29 -9 -5 -5 -22 -5 -10 -2 35 8 100 15 115 55 114 l33 -1 -30 -7 c-44 -9
-52 -50 -32 -154 22 -107 25 -125 20 -108 -4 12 -6 12 -15 0 -8 -11 -8 -10 -4
5 4 10 3 35 0 55 l-7 36 -9 -30 c-9 -34 8 -99 24 -89 6 4 8 -1 3 -15 -9 -31 4
-26 16 7 6 15 13 23 14 17 2 -5 11 -44 20 -85 23 -102 83 -297 105 -340 10
-19 33 -50 50 -69 30 -32 33 -40 34 -110 1 -52 8 -90 22 -121 12 -25 31 -72
44 -105 13 -33 40 -92 60 -132 20 -40 33 -70 28 -67 -4 3 -5 -2 -2 -10 3 -9
10 -13 16 -10 5 3 2 -8 -6 -25 -17 -32 -33 -43 -22 -15 4 10 2 13 -6 8 -8 -5
-9 -2 -5 10 5 11 3 15 -5 10 -8 -5 -9 -2 -5 10 5 11 3 15 -5 10 -8 -5 -9 -2
-5 10 4 10 3 15 -3 11 -6 -3 -10 -1 -10 6 0 7 -2 10 -5 7 -12 -12 116 -276
148 -306 48 -45 135 -45 157 1 11 21 11 21 -4 3 -13 -16 -19 -17 -28 -8 -7 7
-16 12 -22 12 -5 0 -2 -6 8 -13 15 -11 12 -12 -24 -12 -46 0 -49 2 -17 15 14
5 16 9 6 9 -22 1 -52 36 -93 111 -20 36 -36 61 -36 57 0 -12 51 -110 67 -129
8 -9 12 -22 7 -29 -4 -8 -3 -10 4 -5 7 4 17 4 23 0 8 -4 7 -9 -2 -15 -15 -9
-42 9 -33 22 3 5 0 8 -7 7 -12 -3 -69 86 -68 107 0 6 8 -6 19 -25 24 -43 26
-33 3 15 -12 25 -19 32 -26 23 -5 -8 -6 -5 -2 10 4 15 3 22 -6 20 -21 -5 -20
25 1 52 15 18 18 20 13 6 -4 -13 -3 -17 5 -12 7 4 10 2 7 -6 -6 -16 93 -177
118 -192 22 -14 52 3 52 30 0 14 -7 19 -28 19 -19 1 -39 13 -65 40 -20 21 -29
33 -20 26 14 -10 21 -10 40 3 29 20 97 21 126 0 49 -34 65 -101 36 -155 -32
-63 -152 -87 -217 -44 -21 13 -27 12 -72 -10 -26 -14 -62 -25 -79 -24 -26 1
-22 3 19 13 50 12 95 32 95 42 0 3 -14 19 -30 37 -45 48 -101 162 -174 358
-87 234 -101 288 -88 353 9 47 8 51 -14 69 -57 44 -87 124 -169 437 -54 206
-68 301 -55 371 19 98 87 140 165 104z m-608 -262 c-3 -10 -5 -2 -5 17 0 19 2
27 5 18 2 -10 2 -26 0 -35z m550 0 c-3 -10 -5 -2 -5 17 0 19 2 27 5 18 2 -10
2 -26 0 -35z m10 -75 c-3 -7 -5 -2 -5 12 0 14 2 19 5 13 2 -7 2 -19 0 -25z
m66 -624 c-7 -19 -23 -7 -23 18 0 17 3 18 14 8 8 -6 12 -18 9 -26z m-695 -7
c-7 -14 -13 -17 -16 -9 -6 19 6 44 18 37 7 -4 6 -14 -2 -28z m699 -579 c-2
-13 -4 -5 -4 17 -1 22 1 32 4 23 2 -10 2 -28 0 -40z"/>
<path d="M1381 2432 c-7 -26 -7 -49 -1 -73 6 -18 9 -50 8 -69 -2 -24 1 -35 10
-35 9 0 15 20 18 65 6 88 6 101 -1 128 -8 33 -23 27 -34 -16z"/>
<path d="M1355 2310 c3 -5 8 -10 11 -10 2 0 4 5 4 10 0 6 -5 10 -11 10 -5 0
-7 -4 -4 -10z"/>
<path d="M1430 2309 c0 -5 5 -7 10 -4 6 3 10 8 10 11 0 2 -4 4 -10 4 -5 0 -10
-5 -10 -11z"/>
<path d="M1305 2290 c-9 -14 4 -32 17 -24 6 4 8 -2 4 -17 -6 -20 -5 -21 4 -6
13 20 4 41 -12 31 -7 -5 -9 -1 -5 9 7 19 2 23 -8 7z"/>
<path d="M1465 2270 c-3 -5 -1 -18 5 -27 9 -15 10 -14 4 6 -4 17 -3 21 6 16 9
-5 11 -4 6 3 -9 15 -13 15 -21 2z"/>
<path d="M1455 2201 c1 -17 5 -34 9 -38 9 -10 7 40 -3 56 -6 9 -8 4 -6 -18z"/>
<path d="M1390 2210 c0 -5 5 -10 10 -10 6 0 10 5 10 10 0 6 -4 10 -10 10 -5 0
-10 -4 -10 -10z"/>
<path d="M1330 2184 c0 -8 5 -12 10 -9 6 4 8 11 5 16 -9 14 -15 11 -15 -7z"/>
<path d="M1381 2156 c-9 -11 -9 -20 -2 -34 8 -14 4 -42 -14 -108 -13 -49 -60
-222 -104 -385 -45 -163 -81 -303 -81 -310 0 -8 13 -15 31 -16 36 -3 110 -36
157 -71 l32 -24 35 26 c49 37 114 66 153 66 17 0 32 5 32 10 0 6 -25 104 -56
218 -60 222 -87 320 -128 475 -20 76 -24 103 -15 118 10 20 -2 49 -21 49 -4 0
-13 -6 -19 -14z"/>
<path d="M1216 1241 c59 -22 96 -43 138 -80 l29 -26 -22 32 c-29 42 -94 79
-151 87 l-45 6 51 -19z"/>
<path d="M1552 1245 c-49 -15 -107 -56 -123 -88 -9 -17 -5 -16 22 9 39 36 63
50 134 75 58 21 31 24 -33 4z"/>
<path d="M1011 835 c1 -19 18 -51 18 -35 0 8 -4 22 -9 30 -5 8 -9 11 -9 5z"/>
<path d="M1773 805 c-3 -9 -3 -18 -1 -21 3 -3 8 4 11 16 6 23 -1 27 -10 5z"/>
<path d="M1002 780 c0 -14 4 -38 8 -55 l8 -30 0 35 c0 19 -3 44 -8 55 -8 18
-9 18 -8 -5z"/>
<path d="M1786 769 c-3 -17 -6 -60 -6 -96 0 -68 -20 -130 -44 -139 -9 -3 -13
-10 -10 -15 3 -5 -7 -9 -23 -9 -19 0 -24 3 -15 9 11 6 10 10 -5 15 -10 4 -20
7 -23 6 -2 -1 -7 7 -11 17 -7 17 -8 17 -8 1 -1 -26 35 -58 64 -58 66 0 106 68
103 178 l-2 67 -7 -70 c-6 -63 -6 -60 -4 28 2 53 2 97 0 97 -1 0 -5 -14 -9
-31z m4 -183 c0 -8 -12 -28 -26 -43 l-26 -28 21 29 c12 16 21 35 21 42 0 8 2
14 5 14 3 0 5 -6 5 -14z"/>
<path d="M992 678 c-3 -110 38 -178 107 -178 28 0 61 38 61 71 0 31 -15 46
-26 28 -4 -8 -3 -9 4 -5 8 5 12 -3 11 -26 0 -18 -3 -28 -5 -21 -4 8 -10 7 -23
-5 -11 -11 -13 -20 -7 -24 6 -4 -2 -8 -17 -8 -16 0 -26 4 -22 10 3 6 1 10 -5
10 -5 0 -19 14 -29 31 -13 21 -21 26 -24 17 -3 -7 -5 5 -3 27 2 23 1 30 -3 15
-3 -16 -8 2 -11 50 l-6 75 -2 -67z m53 -138 l20 -25 -22 19 c-13 11 -23 24
-23 29 0 6 1 8 3 6 1 -2 11 -15 22 -29z"/>
<path d="M1074 2174 c-18 -15 -18 -15 3 -5 58 29 101 -1 113 -79 l9 -55 -3 54
c-3 45 -8 59 -30 78 -31 27 -64 29 -92 7z"/>
<path d="M1127 1869 c-8 -29 3 -47 15 -25 5 9 5 23 0 32 -8 14 -10 13 -15 -7z"/>
<path d="M800 851 c0 -7 -4 -9 -10 -6 -6 4 -7 -1 -3 -11 4 -12 3 -15 -5 -10
-8 5 -10 1 -5 -10 4 -12 3 -15 -5 -10 -8 5 -10 1 -5 -10 4 -12 3 -15 -5 -10
-8 5 -10 1 -5 -11 6 -16 5 -16 -10 -4 -9 7 -17 10 -17 5 0 -5 -4 -3 -9 4 -7
11 -9 10 -14 -3 -4 -9 -3 -13 3 -10 18 11 11 -8 -31 -85 -45 -84 -75 -120 -98
-121 -10 0 -8 -4 7 -9 31 -13 28 -15 -18 -15 -36 0 -39 1 -24 12 10 7 13 13 7
13 -7 0 -15 -5 -18 -11 -4 -6 -14 -8 -24 -5 -13 5 -13 4 2 -8 9 -7 38 -14 64
-14 42 -1 51 3 82 37 35 36 157 288 146 299 -3 3 -5 0 -5 -7z m-50 -102 c0 -6
-4 -7 -10 -4 -6 4 -9 -4 -7 -17 1 -15 -3 -22 -12 -20 -9 2 -11 -3 -7 -13 12
-33 -72 -159 -100 -148 -11 4 -7 13 17 40 16 19 47 68 66 108 32 65 53 86 53
54z"/>
<path d="M687 655 c-9 -19 -15 -35 -12 -35 7 0 37 61 33 66 -3 2 -12 -12 -21
-31z"/>
<path d="M640 578 c-15 -21 -17 -28 -6 -19 16 13 41 51 33 51 -2 0 -14 -15
-27 -32z"/>
<path d="M2065 749 c-4 -5 -4 -13 -1 -16 3 -4 6 0 6 8 0 11 2 11 10 -1 6 -9
10 -10 10 -3 0 17 -17 25 -25 12z"/>
<path d="M2120 624 c0 -6 7 -19 15 -30 8 -10 14 -14 14 -9 0 6 -6 19 -14 29
-8 11 -15 15 -15 10z"/>
</g>
</svg>
